<?xml version="1.0" standalone="no"?>
<!DOCTYPE svg PUBLIC "-//W3C//DTD SVG 20010904//EN"
 "http://www.w3.org/TR/2001/REC-SVG-20010904/DTD/svg10.dtd">
<svg version="1.0" xmlns="http://www.w3.org/2000/svg"
 width="344.000000pt" height="70.000000pt" viewBox="0 0 344.000000 70.000000"
 preserveAspectRatio="xMidYMid meet">

<g transform="translate(0.000000,70.000000) scale(0.100000,-0.100000)"
fill="#000000" stroke="none">
<path d="M10 350 l0 -350 70 0 70 0 0 140 0 140 260 0 260 0 0 75 0 75 -260 0
-260 0 0 60 0 60 325 0 325 0 0 75 0 75 -395 0 -395 0 0 -350z"/>
<path d="M1050 350 l0 -350 280 0 280 0 0 75 0 75 -205 0 -205 0 0 275 0 275
-75 0 -75 0 0 -350z"/>
<path d="M1861 355 c-106 -190 -191 -348 -189 -351 3 -2 208 -3 457 -2 l451 3
-199 345 -199 345 -64 3 -63 3 -194 -346z m368 -39 c50 -87 90 -160 88 -163
-2 -2 -92 -2 -200 -1 l-196 3 96 173 c76 136 99 170 109 160 6 -7 53 -84 103
-172z"/>
<path d="M2630 625 c0 -73 2 -79 40 -132 22 -31 40 -60 40 -65 0 -4 -18 -8
-40 -8 l-40 0 0 -211 0 -210 333 3 c331 3 332 3 371 27 21 13 51 45 67 70 37
57 41 149 9 211 l-20 40 20 40 c14 27 20 59 20 103 0 56 -4 71 -32 113 -60 88
-64 89 -440 92 l-328 3 0 -76z m633 -87 c9 -7 19 -25 22 -40 5 -21 1 -33 -19
-52 -25 -26 -26 -26 -194 -26 l-168 0 -42 60 c-23 32 -42 61 -42 65 0 3 96 5
213 5 155 0 218 -3 230 -12z m3 -284 c20 -19 24 -31 19 -52 -12 -50 -21 -52
-272 -52 l-233 0 0 65 0 65 230 0 231 0 25 -26z"/>
<path d="M802 160 c-30 -28 -36 -62 -18 -98 39 -76 146 -46 146 40 0 66 -80
102 -128 58z"/>
</g>
</svg>
